<?xml version="1.0" encoding="utf-8"?>
<!-- Generator: Adobe Illustrator 16.0.3, SVG Export Plug-In . SVG Version: 6.00 Build 0)  -->
<!DOCTYPE svg PUBLIC "-//W3C//DTD SVG 1.1//EN" "http://www.w3.org/Graphics/SVG/1.1/DTD/svg11.dtd">
<svg version="1.1" id="Layer_1" xmlns="http://www.w3.org/2000/svg" xmlns:xlink="http://www.w3.org/1999/xlink" x="0px" y="0px"
	 width="24px" height="24px" viewBox="0 0 24 24" enable-background="new 0 0 24 24" xml:space="preserve">
<g>
	<g>
		<path fill="#BE1E2D" d="M17.119,12c0,1.412-0.5,2.619-1.5,3.619s-2.207,1.5-3.619,1.5s-2.619-0.5-3.619-1.5s-1.5-2.207-1.5-3.619
			s0.5-2.619,1.5-3.619s2.207-1.5,3.619-1.5s2.619,0.5,3.619,1.5S17.119,10.588,17.119,12z M14.656,15.375L8.619,9.338
			C8.006,10.116,7.7,11.004,7.7,12c0,1.188,0.419,2.201,1.259,3.041S10.813,16.3,12,16.3C12.991,16.3,13.877,15.991,14.656,15.375z
			 M16.3,12c0-1.188-0.419-2.201-1.259-3.041S13.188,7.7,12,7.7c-1.063,0-1.996,0.344-2.8,1.031l6.063,6.063
			C15.954,13.99,16.3,13.059,16.3,12z"/>
	</g>
</g>
</svg>
