<?xml version="1.0" encoding="utf-8"?>
<!-- Generator: Adobe Illustrator 16.0.0, SVG Export Plug-In . SVG Version: 6.00 Build 0)  -->
<!DOCTYPE svg PUBLIC "-//W3C//DTD SVG 1.1//EN" "http://www.w3.org/Graphics/SVG/1.1/DTD/svg11.dtd">
<svg version="1.1" id="Layer_1" xmlns="http://www.w3.org/2000/svg" xmlns:xlink="http://www.w3.org/1999/xlink" x="0px" y="0px"
	 width="155px" height="45px" viewBox="0 0 155 45" enable-background="new 0 0 155 45" xml:space="preserve">
<g>
	<g>
		<g>
			<path fill="#787878" d="M15.813,18.139h11.194v14.146H22.94l-0.612-2.375c-2.16,2.16-4.284,2.952-7.271,2.952
				c-6.731,0-12.13-5.255-12.13-13.427c0-8.171,5.399-13.426,12.67-13.426c5.723,0,11.158,3.959,11.158,9.503h-5.975
				c-0.54-2.808-2.375-4.392-5.183-4.392c-3.024,0-6.551,2.16-6.551,8.315s3.527,8.315,6.551,8.315c2.987,0,5.831-1.656,5.831-4.823
				h-5.615V18.139z M23.552,31.493h2.628V18.93h-9.539v3.204h5.616c0,4.068-2.556,6.407-6.659,6.407
				c-3.816,0-7.379-2.952-7.379-9.107s3.563-9.106,7.379-9.106c2.664,0,5.291,1.583,5.831,4.391h4.5
				c0-2.556-3.419-7.919-10.331-7.919c-6.479,0-11.843,4.607-11.843,12.634c0,8.027,5.363,12.635,11.303,12.635
				c3.456,0,5.435-1.116,7.703-3.672L23.552,31.493z"/>
			<path fill="#787878" d="M47.781,29.045c0,1.368,0.324,2.448,0.756,3.24h-5.795c-0.216-0.288-0.396-1.008-0.396-1.44
				c-1.332,1.008-2.627,1.944-5.867,1.944c-6.011,0-6.695-4.067-6.695-5.651c0-5.255,4.859-5.831,8.495-6.263
				c3.527-0.396,4.067-0.504,4.067-2.052c0-1.26-1.512-1.8-2.952-1.8c-2.988,0-3.24,1.296-3.383,2.844h-5.436v-0.36
				c0-1.404,0.684-6.587,8.855-6.587c8.351,0,8.351,4.32,8.351,6.191V29.045z M46.953,19.218c0-1.8,0-5.507-7.631-5.507
				c-6.911,0-7.919,4.067-7.919,5.04v0.324h3.852c0-0.252,0.36-2.844,3.887-2.844c0.9,0,4.032,0,4.032,2.736
				c0,1.692-0.684,2.232-4.536,2.628c-5.111,0.54-8.027,1.26-8.027,5.435c0,4.967,5.075,4.967,6.227,4.967
				c2.448,0,4.211-1.044,6.335-2.592c0,0.36,0,1.8,0.216,2.088h3.959c-0.18-0.36-0.396-1.152-0.396-2.556V19.218z M43.029,25.122
				c0,3.06-2.376,4.571-4.859,4.571c-2.232,0-3.456-1.08-3.456-2.844c0-2.16,1.62-2.843,2.771-3.023l2.016-0.324
				c2.376-0.396,2.88-0.612,3.528-0.9V25.122z M42.201,23.718c-0.864,0.252-1.116,0.324-3.096,0.648
				c-2.664,0.432-3.563,0.612-3.563,2.556c0,1.224,1.044,1.979,2.628,1.979c2.16,0,4.031-1.224,4.031-3.527V23.718z"/>
			<path fill="#787878" d="M49.654,13.423h3.096V7.88h5.58v5.543h3.779v4.104H58.33v8.603c0,1.512,0.432,1.692,1.368,1.692h2.412
				v4.463c-1.116,0.144-2.196,0.216-3.312,0.216c-3.636,0-6.047-0.684-6.047-4.715V17.526h-3.096V13.423z M50.482,16.735h3.096
				v10.727c0,3.167,1.116,4.247,5.075,4.247c0.864,0,1.764-0.108,2.628-0.18v-2.916h-1.656c-2.124,0-2.124-1.44-2.124-2.484v-9.395
				h3.78v-2.52h-3.78V8.671h-3.923v5.543h-3.096V16.735z"/>
			<path fill="#787878" d="M82.916,26.273c-0.864,3.384-3.852,6.515-9.107,6.515c-7.847,0-9.863-5.939-9.863-9.611
				c0-6.155,4.175-10.259,9.863-10.259c6.947,0,9.395,5.436,9.395,11.483v0.18H69.706c0.18,1.044,0.576,3.744,4.104,3.744
				c2.483,0,2.952-1.224,3.348-2.052H82.916z M77.732,27.065c-0.72,1.26-2.088,2.052-3.923,2.052c-4.644,0-4.859-4.032-4.932-5.328
				h13.499c-0.18-5.435-2.448-10.079-8.567-10.079c-5.363,0-9.035,3.959-9.035,9.323c0,4.284,2.412,8.963,9.035,8.963
				c1.512,0,6.119-0.324,7.991-4.931H77.732z M68.877,21.27c0.252-3.023,2.088-4.679,4.932-4.679c3.815,0,4.319,3.491,4.463,4.679
				H68.877z M77.444,20.478c-0.54-1.8-1.512-3.096-3.635-3.096c-3.096,0-3.708,1.908-4.104,3.096H77.444z"/>
			<path fill="#787878" d="M84.321,13.423h5.976l2.987,10.763h0.072l2.7-10.763h5.687l2.7,10.763h0.072l2.987-10.763h5.976
				l-6.011,18.862h-5.976l-2.556-10.259h-0.072l-2.556,10.259h-5.976L84.321,13.423z M90.909,31.493h4.823l3.168-12.49l3.167,12.49
				h4.823l5.507-17.278h-4.211l-3.708,13.103l-3.384-13.103h-4.391L93.32,27.317l-3.708-13.103h-4.211L90.909,31.493z"/>
			<path fill="#787878" d="M132.416,29.045c0,1.368,0.324,2.448,0.756,3.24h-5.795c-0.216-0.288-0.396-1.008-0.396-1.44
				c-1.332,1.008-2.627,1.944-5.867,1.944c-6.011,0-6.695-4.067-6.695-5.651c0-5.255,4.859-5.831,8.495-6.263
				c3.527-0.396,4.067-0.504,4.067-2.052c0-1.26-1.512-1.8-2.952-1.8c-2.988,0-3.24,1.296-3.383,2.844h-5.436v-0.36
				c0-1.404,0.684-6.587,8.855-6.587c8.351,0,8.351,4.32,8.351,6.191V29.045z M131.587,19.218c0-1.8,0-5.507-7.631-5.507
				c-6.911,0-7.919,4.067-7.919,5.04v0.324h3.852c0-0.252,0.36-2.844,3.887-2.844c0.9,0,4.032,0,4.032,2.736
				c0,1.692-0.684,2.232-4.536,2.628c-5.111,0.54-8.027,1.26-8.027,5.435c0,4.967,5.075,4.967,6.227,4.967
				c2.448,0,4.211-1.044,6.335-2.592c0,0.36,0,1.8,0.216,2.088h3.959c-0.18-0.36-0.396-1.152-0.396-2.556V19.218z M127.664,25.122
				c0,3.06-2.376,4.571-4.859,4.571c-2.232,0-3.456-1.08-3.456-2.844c0-2.16,1.62-2.843,2.771-3.023l2.016-0.324
				c2.376-0.396,2.88-0.612,3.528-0.9V25.122z M126.836,23.718c-0.864,0.252-1.116,0.324-3.096,0.648
				c-2.664,0.432-3.563,0.612-3.563,2.556c0,1.224,1.044,1.979,2.628,1.979c2.16,0,4.031-1.224,4.031-3.527V23.718z"/>
			<path fill="#787878" d="M133.713,13.423h6.119l3.852,11.807h0.072l3.816-11.807h5.831l-7.559,20.337
				c-1.8,4.896-4.896,4.859-6.983,4.859h-3.24V33.94h1.8c1.404,0,3.06,0,3.06-2.016c0-0.432-0.108-0.828-0.288-1.296L133.713,13.423
				z M141.092,30.737c0.144,0.36,0.216,0.756,0.216,1.188c0,2.735-2.376,2.808-3.492,2.808h-1.368v3.096h2.808
				c1.943,0,4.175,0,5.759-4.248l7.235-19.366h-4.104l-4.5,13.462l-4.427-13.462h-4.355L141.092,30.737z"/>
		</g>
		<g>
			<path fill="#787878" d="M4.773,36.097h0.7l1.73,4.384l1.723-4.384h0.7v5H9.15v-4.321H9.136l-1.709,4.321H6.979l-1.716-4.321
				H5.249v4.321H4.773V36.097z"/>
			<path fill="#787878" d="M13.461,41.097h-0.406v-0.651h-0.014c-0.231,0.483-0.708,0.756-1.247,0.756
				c-0.91,0-1.268-0.532-1.268-1.373v-2.346h0.441v2.353c0.021,0.651,0.266,0.995,0.966,0.995c0.756,0,1.086-0.714,1.086-1.45
				v-1.898h0.441V41.097z"/>
			<path fill="#787878" d="M14.3,36.097h0.441v5H14.3V36.097z"/>
			<path fill="#787878" d="M16.288,37.483h0.735v0.371h-0.735v2.437c0,0.288,0.042,0.456,0.357,0.477
				c0.126,0,0.252-0.007,0.378-0.021v0.378c-0.133,0-0.259,0.014-0.392,0.014c-0.588,0-0.792-0.196-0.785-0.813v-2.472h-0.63v-0.371
				h0.63v-1.086h0.441V37.483z"/>
			<path fill="#787878" d="M17.667,36.097h0.441v0.707h-0.441V36.097z M17.667,37.483h0.441v3.614h-0.441V37.483z"/>
			<path fill="#787878" d="M21.504,38.618c-0.119-0.539-0.448-0.868-1.022-0.868c-0.848,0-1.268,0.771-1.268,1.541
				c0,0.771,0.42,1.541,1.268,1.541c0.546,0,0.994-0.427,1.05-1.03h0.441c-0.119,0.869-0.687,1.401-1.492,1.401
				c-1.107,0-1.709-0.875-1.709-1.912s0.602-1.912,1.709-1.912c0.77,0,1.366,0.414,1.463,1.24H21.504z"/>
			<path fill="#787878" d="M22.581,36.097h0.441v2.01h0.014c0.161-0.434,0.644-0.729,1.155-0.729c1.016,0,1.324,0.533,1.324,1.394
				v2.325h-0.441v-2.255c0-0.623-0.203-1.092-0.917-1.092c-0.701,0-1.121,0.532-1.135,1.24v2.108h-0.441V36.097z"/>
			<path fill="#787878" d="M26.305,38.59c0.042-0.848,0.637-1.212,1.463-1.212c0.638,0,1.331,0.196,1.331,1.163v1.919
				c0,0.168,0.084,0.266,0.259,0.266c0.049,0,0.105-0.014,0.14-0.028v0.372c-0.098,0.021-0.168,0.028-0.287,0.028
				c-0.448,0-0.518-0.252-0.518-0.63h-0.014c-0.308,0.469-0.624,0.735-1.317,0.735c-0.665,0-1.211-0.329-1.211-1.058
				c0-1.016,0.987-1.05,1.94-1.163c0.364-0.042,0.567-0.091,0.567-0.49c0-0.595-0.427-0.742-0.945-0.742
				c-0.546,0-0.953,0.252-0.967,0.84H26.305z M28.658,39.122h-0.014c-0.056,0.105-0.252,0.14-0.371,0.161
				c-0.75,0.133-1.681,0.126-1.681,0.833c0,0.441,0.392,0.714,0.805,0.714c0.672,0,1.268-0.427,1.261-1.135V39.122z"/>
			<path fill="#787878" d="M29.973,37.483h0.441v0.623h0.014c0.161-0.434,0.644-0.729,1.155-0.729c1.016,0,1.324,0.533,1.324,1.394
				v2.325h-0.441v-2.255c0-0.623-0.203-1.092-0.917-1.092c-0.701,0-1.121,0.532-1.135,1.24v2.108h-0.441V37.483z"/>
			<path fill="#787878" d="M33.731,37.483h0.441v0.623h0.014c0.161-0.434,0.644-0.729,1.155-0.729c1.016,0,1.324,0.533,1.324,1.394
				v2.325h-0.441v-2.255c0-0.623-0.203-1.092-0.917-1.092c-0.701,0-1.121,0.532-1.135,1.24v2.108h-0.441V37.483z"/>
			<path fill="#787878" d="M37.756,39.409c0.007,0.645,0.343,1.422,1.191,1.422c0.644,0,0.995-0.378,1.134-0.924h0.441
				c-0.189,0.819-0.666,1.295-1.576,1.295c-1.149,0-1.632-0.882-1.632-1.912c0-0.952,0.483-1.912,1.632-1.912
				c1.163,0,1.625,1.016,1.59,2.031H37.756z M40.096,39.038c-0.021-0.666-0.434-1.289-1.148-1.289c-0.722,0-1.121,0.63-1.191,1.289
				H40.096z"/>
			<path fill="#787878" d="M41.137,36.097h0.441v5h-0.441V36.097z"/>
			<path fill="#787878" d="M45.072,37.483h0.735v0.371h-0.735v2.437c0,0.288,0.042,0.456,0.357,0.477
				c0.126,0,0.252-0.007,0.378-0.021v0.378c-0.133,0-0.259,0.014-0.392,0.014c-0.588,0-0.792-0.196-0.785-0.813v-2.472H44v-0.371
				h0.63v-1.086h0.441V37.483z"/>
			<path fill="#787878" d="M46.443,37.483h0.406v0.847h0.014c0.224-0.581,0.714-0.924,1.366-0.896v0.441
				c-0.798-0.042-1.345,0.546-1.345,1.295v1.926h-0.441V37.483z"/>
			<path fill="#787878" d="M48.606,38.59c0.042-0.848,0.637-1.212,1.463-1.212c0.638,0,1.331,0.196,1.331,1.163v1.919
				c0,0.168,0.084,0.266,0.259,0.266c0.049,0,0.105-0.014,0.14-0.028v0.372c-0.098,0.021-0.168,0.028-0.287,0.028
				c-0.448,0-0.518-0.252-0.518-0.63H50.98c-0.308,0.469-0.624,0.735-1.317,0.735c-0.665,0-1.211-0.329-1.211-1.058
				c0-1.016,0.987-1.05,1.94-1.163c0.364-0.042,0.567-0.091,0.567-0.49c0-0.595-0.427-0.742-0.945-0.742
				c-0.546,0-0.953,0.252-0.967,0.84H48.606z M50.959,39.122h-0.014c-0.056,0.105-0.252,0.14-0.371,0.161
				c-0.75,0.133-1.681,0.126-1.681,0.833c0,0.441,0.392,0.714,0.805,0.714c0.672,0,1.268-0.427,1.261-1.135V39.122z"/>
			<path fill="#787878" d="M52.274,37.483h0.441v0.623h0.014c0.161-0.434,0.644-0.729,1.155-0.729c1.016,0,1.324,0.533,1.324,1.394
				v2.325h-0.441v-2.255c0-0.623-0.203-1.092-0.917-1.092c-0.701,0-1.121,0.532-1.135,1.24v2.108h-0.441V37.483z"/>
			<path fill="#787878" d="M58.204,38.541c-0.021-0.546-0.441-0.792-0.946-0.792c-0.392,0-0.854,0.154-0.854,0.623
				c0,0.393,0.448,0.532,0.75,0.609l0.588,0.133c0.504,0.077,1.03,0.371,1.03,1.001c0,0.784-0.777,1.085-1.45,1.085
				c-0.841,0-1.415-0.392-1.485-1.274h0.441c0.035,0.595,0.477,0.903,1.065,0.903c0.413,0,0.987-0.182,0.987-0.687
				c0-0.42-0.392-0.56-0.792-0.658l-0.567-0.126c-0.574-0.154-1.008-0.35-1.008-0.967c0-0.735,0.721-1.016,1.359-1.016
				c0.721,0,1.295,0.378,1.323,1.163H58.204z"/>
			<path fill="#787878" d="M59.365,38.59c0.042-0.848,0.637-1.212,1.463-1.212c0.638,0,1.331,0.196,1.331,1.163v1.919
				c0,0.168,0.084,0.266,0.259,0.266c0.049,0,0.105-0.014,0.14-0.028v0.372c-0.098,0.021-0.168,0.028-0.287,0.028
				c-0.448,0-0.518-0.252-0.518-0.63h-0.014c-0.308,0.469-0.624,0.735-1.317,0.735c-0.665,0-1.211-0.329-1.211-1.058
				c0-1.016,0.987-1.05,1.94-1.163c0.364-0.042,0.567-0.091,0.567-0.49c0-0.595-0.427-0.742-0.945-0.742
				c-0.546,0-0.953,0.252-0.967,0.84H59.365z M61.718,39.122h-0.014c-0.056,0.105-0.252,0.14-0.371,0.161
				c-0.75,0.133-1.681,0.126-1.681,0.833c0,0.441,0.392,0.714,0.805,0.714c0.672,0,1.268-0.427,1.261-1.135V39.122z"/>
			<path fill="#787878" d="M65.589,38.618c-0.119-0.539-0.448-0.868-1.022-0.868c-0.848,0-1.268,0.771-1.268,1.541
				c0,0.771,0.42,1.541,1.268,1.541c0.546,0,0.994-0.427,1.05-1.03h0.441c-0.119,0.869-0.687,1.401-1.492,1.401
				c-1.107,0-1.709-0.875-1.709-1.912s0.602-1.912,1.709-1.912c0.77,0,1.366,0.414,1.463,1.24H65.589z"/>
			<path fill="#787878" d="M67.374,37.483h0.735v0.371h-0.735v2.437c0,0.288,0.042,0.456,0.357,0.477
				c0.126,0,0.252-0.007,0.378-0.021v0.378c-0.133,0-0.259,0.014-0.392,0.014c-0.588,0-0.792-0.196-0.785-0.813v-2.472h-0.63v-0.371
				h0.63v-1.086h0.441V37.483z"/>
			<path fill="#787878" d="M68.752,36.097h0.441v0.707h-0.441V36.097z M68.752,37.483h0.441v3.614h-0.441V37.483z"/>
			<path fill="#787878" d="M73.275,39.29c0,1.037-0.602,1.912-1.708,1.912c-1.107,0-1.709-0.875-1.709-1.912
				s0.602-1.912,1.709-1.912C72.673,37.378,73.275,38.253,73.275,39.29z M70.299,39.29c0,0.771,0.42,1.541,1.268,1.541
				c0.847,0,1.268-0.771,1.268-1.541c0-0.77-0.42-1.541-1.268-1.541C70.719,37.75,70.299,38.52,70.299,39.29z"/>
			<path fill="#787878" d="M73.925,37.483h0.441v0.623h0.014c0.161-0.434,0.644-0.729,1.155-0.729c1.016,0,1.324,0.533,1.324,1.394
				v2.325h-0.441v-2.255c0-0.623-0.203-1.092-0.917-1.092c-0.701,0-1.121,0.532-1.135,1.24v2.108h-0.441V37.483z"/>
			<path fill="#787878" d="M82.69,40.803c-0.007,1.078-0.42,1.737-1.604,1.737c-0.722,0-1.436-0.322-1.499-1.093h0.441
				c0.098,0.532,0.567,0.722,1.058,0.722c0.813,0,1.163-0.483,1.163-1.366v-0.49h-0.014c-0.203,0.441-0.63,0.742-1.148,0.742
				c-1.156,0-1.632-0.827-1.632-1.856c0-0.995,0.588-1.821,1.632-1.821c0.525,0,0.974,0.33,1.148,0.729h0.014v-0.623h0.441V40.803z
				 M82.249,39.248c0-0.707-0.329-1.499-1.163-1.499c-0.84,0-1.191,0.749-1.191,1.499c0,0.729,0.378,1.436,1.191,1.436
				C81.85,40.684,82.249,39.983,82.249,39.248z"/>
			<path fill="#787878" d="M83.487,38.59c0.042-0.848,0.637-1.212,1.463-1.212c0.638,0,1.331,0.196,1.331,1.163v1.919
				c0,0.168,0.084,0.266,0.259,0.266c0.049,0,0.105-0.014,0.14-0.028v0.372c-0.098,0.021-0.168,0.028-0.287,0.028
				c-0.448,0-0.518-0.252-0.518-0.63h-0.014c-0.308,0.469-0.623,0.735-1.317,0.735c-0.665,0-1.211-0.329-1.211-1.058
				c0-1.016,0.987-1.05,1.94-1.163c0.364-0.042,0.567-0.091,0.567-0.49c0-0.595-0.427-0.742-0.945-0.742
				c-0.546,0-0.953,0.252-0.967,0.84H83.487z M85.84,39.122h-0.014c-0.056,0.105-0.252,0.14-0.371,0.161
				c-0.75,0.133-1.681,0.126-1.681,0.833c0,0.441,0.392,0.714,0.805,0.714c0.672,0,1.268-0.427,1.261-1.135V39.122z"/>
			<path fill="#787878" d="M87.862,37.483h0.735v0.371h-0.735v2.437c0,0.288,0.042,0.456,0.357,0.477
				c0.126,0,0.252-0.007,0.378-0.021v0.378c-0.133,0-0.259,0.014-0.392,0.014c-0.588,0-0.792-0.196-0.785-0.813v-2.472h-0.63v-0.371
				h0.63v-1.086h0.441V37.483z"/>
			<path fill="#787878" d="M89.493,39.409c0.007,0.645,0.343,1.422,1.191,1.422c0.644,0,0.995-0.378,1.134-0.924h0.441
				c-0.189,0.819-0.666,1.295-1.576,1.295c-1.149,0-1.632-0.882-1.632-1.912c0-0.952,0.483-1.912,1.632-1.912
				c1.163,0,1.625,1.016,1.59,2.031H89.493z M91.832,39.038c-0.021-0.666-0.434-1.289-1.148-1.289c-0.722,0-1.121,0.63-1.191,1.289
				H91.832z"/>
			<path fill="#787878" d="M92.502,37.483h0.469l0.924,3.096h0.014l0.882-3.096h0.498l0.882,3.096h0.014l0.924-3.096h0.469
				l-1.163,3.614h-0.483l-0.889-3.04h-0.014l-0.882,3.04h-0.483L92.502,37.483z"/>
			<path fill="#787878" d="M98.012,38.59c0.042-0.848,0.637-1.212,1.463-1.212c0.638,0,1.331,0.196,1.331,1.163v1.919
				c0,0.168,0.084,0.266,0.259,0.266c0.049,0,0.105-0.014,0.14-0.028v0.372c-0.098,0.021-0.168,0.028-0.287,0.028
				c-0.448,0-0.518-0.252-0.518-0.63h-0.014c-0.308,0.469-0.624,0.735-1.317,0.735c-0.665,0-1.211-0.329-1.211-1.058
				c0-1.016,0.987-1.05,1.94-1.163c0.364-0.042,0.567-0.091,0.567-0.49c0-0.595-0.427-0.742-0.945-0.742
				c-0.546,0-0.953,0.252-0.967,0.84H98.012z M100.365,39.122h-0.014c-0.056,0.105-0.252,0.14-0.371,0.161
				c-0.75,0.133-1.681,0.126-1.681,0.833c0,0.441,0.392,0.714,0.805,0.714c0.672,0,1.268-0.427,1.261-1.135V39.122z"/>
			<path fill="#787878" d="M101.281,37.483h0.469l1.19,3.082l1.114-3.082h0.441l-1.569,4.167c-0.252,0.609-0.399,0.785-0.952,0.785
				c-0.175-0.007-0.266-0.007-0.336-0.035v-0.371c0.105,0.021,0.203,0.035,0.301,0.035c0.392,0,0.483-0.231,0.63-0.567l0.154-0.414
				L101.281,37.483z"/>
			<path fill="#787878" d="M109.038,38.541c-0.021-0.546-0.441-0.792-0.946-0.792c-0.392,0-0.854,0.154-0.854,0.623
				c0,0.393,0.448,0.532,0.75,0.609l0.588,0.133c0.504,0.077,1.03,0.371,1.03,1.001c0,0.784-0.777,1.085-1.45,1.085
				c-0.841,0-1.415-0.392-1.485-1.274h0.441c0.035,0.595,0.477,0.903,1.065,0.903c0.413,0,0.987-0.182,0.987-0.687
				c0-0.42-0.392-0.56-0.792-0.658l-0.567-0.126c-0.574-0.154-1.008-0.35-1.008-0.967c0-0.735,0.721-1.016,1.359-1.016
				c0.721,0,1.295,0.378,1.323,1.163H109.038z"/>
			<path fill="#787878" d="M109.834,37.483h0.469l1.19,3.082l1.114-3.082h0.441l-1.569,4.167c-0.252,0.609-0.399,0.785-0.952,0.785
				c-0.175-0.007-0.266-0.007-0.336-0.035v-0.371c0.105,0.021,0.203,0.035,0.301,0.035c0.392,0,0.483-0.231,0.63-0.567l0.154-0.414
				L109.834,37.483z"/>
			<path fill="#787878" d="M115.646,38.541c-0.021-0.546-0.441-0.792-0.946-0.792c-0.392,0-0.854,0.154-0.854,0.623
				c0,0.393,0.448,0.532,0.75,0.609l0.588,0.133c0.504,0.077,1.03,0.371,1.03,1.001c0,0.784-0.777,1.085-1.45,1.085
				c-0.841,0-1.415-0.392-1.485-1.274h0.441c0.035,0.595,0.477,0.903,1.065,0.903c0.413,0,0.987-0.182,0.987-0.687
				c0-0.42-0.392-0.56-0.792-0.658l-0.567-0.126c-0.574-0.154-1.008-0.35-1.008-0.967c0-0.735,0.721-1.016,1.359-1.016
				c0.721,0,1.295,0.378,1.323,1.163H115.646z"/>
			<path fill="#787878" d="M117.549,37.483h0.735v0.371h-0.735v2.437c0,0.288,0.042,0.456,0.357,0.477
				c0.126,0,0.252-0.007,0.378-0.021v0.378c-0.133,0-0.259,0.014-0.392,0.014c-0.588,0-0.792-0.196-0.785-0.813v-2.472h-0.63v-0.371
				h0.63v-1.086h0.441V37.483z"/>
			<path fill="#787878" d="M119.179,39.409c0.007,0.645,0.343,1.422,1.191,1.422c0.644,0,0.995-0.378,1.134-0.924h0.441
				c-0.189,0.819-0.666,1.295-1.576,1.295c-1.149,0-1.632-0.882-1.632-1.912c0-0.952,0.483-1.912,1.632-1.912
				c1.163,0,1.625,1.016,1.59,2.031H119.179z M121.519,39.038c-0.021-0.666-0.434-1.289-1.148-1.289
				c-0.722,0-1.121,0.63-1.191,1.289H121.519z"/>
			<path fill="#787878" d="M122.554,37.483h0.406v0.609h0.021c0.231-0.435,0.609-0.715,1.184-0.715c0.476,0,0.903,0.231,1.037,0.708
				c0.217-0.476,0.672-0.708,1.148-0.708c0.792,0,1.198,0.414,1.198,1.268v2.451h-0.441v-2.43c0-0.595-0.224-0.917-0.854-0.917
				c-0.763,0-0.98,0.63-0.98,1.303v2.045h-0.441v-2.451c0.007-0.49-0.196-0.896-0.756-0.896c-0.763,0-1.071,0.574-1.079,1.331v2.017
				h-0.441V37.483z"/>
		</g>
	</g>
</g>
</svg>
