<?xml version="1.0" encoding="utf-8"?>
<!-- Generator: Adobe Illustrator 16.0.3, SVG Export Plug-In . SVG Version: 6.00 Build 0)  -->
<!DOCTYPE svg PUBLIC "-//W3C//DTD SVG 1.1//EN" "http://www.w3.org/Graphics/SVG/1.1/DTD/svg11.dtd">
<svg version="1.1" id="Layer_1" xmlns="http://www.w3.org/2000/svg" xmlns:xlink="http://www.w3.org/1999/xlink" x="0px" y="0px"
	 width="80px" height="40px" viewBox="0 0 80 40" enable-background="new 0 0 80 40" xml:space="preserve">
<g>
	<g>
		<g>
			<g>
				<path fill="#45304C" d="M32.413,10.531V4.373h0.686v0.574c0.164-0.227,0.348-0.396,0.551-0.51s0.451-0.17,0.744-0.17
					c0.379,0,0.714,0.099,1.005,0.296s0.511,0.474,0.659,0.829s0.223,0.746,0.223,1.172c0,0.457-0.082,0.868-0.246,1.233
					s-0.402,0.645-0.715,0.838s-0.641,0.29-0.984,0.29c-0.25,0-0.476-0.053-0.677-0.158s-0.364-0.24-0.489-0.404v2.168H32.413z
					 M33.093,6.623c0,0.574,0.116,0.998,0.349,1.271s0.515,0.41,0.847,0.41c0.336,0,0.623-0.142,0.861-0.425
					s0.357-0.724,0.357-1.321c0-0.566-0.117-0.991-0.352-1.274s-0.514-0.425-0.838-0.425c-0.32,0-0.604,0.15-0.853,0.451
					S33.093,6.049,33.093,6.623z"/>
				<path fill="#45304C" d="M36.913,6.6c0-0.824,0.229-1.436,0.686-1.834c0.383-0.332,0.85-0.498,1.4-0.498
					c0.613,0,1.114,0.201,1.503,0.604s0.583,0.957,0.583,1.664c0,0.574-0.086,1.025-0.258,1.354s-0.422,0.583-0.75,0.765
					s-0.688,0.272-1.078,0.272c-0.621,0-1.124-0.2-1.509-0.601S36.913,7.35,36.913,6.6z M37.687,6.6c0,0.57,0.125,0.997,0.375,1.28
					s0.563,0.425,0.938,0.425s0.688-0.143,0.938-0.428s0.375-0.719,0.375-1.301c0-0.555-0.126-0.974-0.378-1.257
					s-0.563-0.425-0.935-0.425c-0.375,0-0.688,0.142-0.938,0.425S37.687,6.029,37.687,6.6z"/>
				<path fill="#45304C" d="M42.796,8.826l-1.365-4.453h0.779l0.709,2.572l0.27,0.955c0.008-0.047,0.084-0.354,0.229-0.92
					l0.709-2.607h0.773l0.668,2.584l0.223,0.85l0.258-0.861l0.762-2.572h0.738l-1.395,4.453h-0.785L44.659,6.16l-0.17-0.762
					l-0.902,3.428H42.796z"/>
				<path fill="#45304C" d="M51.228,7.391l0.779,0.1c-0.121,0.453-0.349,0.806-0.683,1.058s-0.759,0.378-1.274,0.378
					c-0.652,0-1.169-0.2-1.55-0.601s-0.571-0.964-0.571-1.69c0-0.75,0.192-1.332,0.577-1.746s0.886-0.621,1.503-0.621
					c0.594,0,1.08,0.203,1.459,0.609s0.568,0.977,0.568,1.711c0,0.047-0.002,0.115-0.006,0.205h-3.322
					c0.027,0.488,0.165,0.862,0.413,1.122s0.56,0.39,0.935,0.39c0.277,0,0.514-0.072,0.709-0.217S51.114,7.711,51.228,7.391z
					 M48.749,6.172h2.49c-0.035-0.375-0.131-0.656-0.287-0.844c-0.242-0.293-0.555-0.439-0.938-0.439
					c-0.348,0-0.64,0.116-0.876,0.349S48.772,5.781,48.749,6.172z"/>
				<path fill="#45304C" d="M52.95,8.826V4.373h0.68v0.674c0.176-0.316,0.337-0.525,0.483-0.627s0.308-0.152,0.483-0.152
					c0.254,0,0.512,0.082,0.773,0.246l-0.258,0.703c-0.184-0.109-0.369-0.164-0.557-0.164c-0.164,0-0.312,0.049-0.442,0.146
					s-0.224,0.236-0.278,0.416c-0.086,0.266-0.129,0.559-0.129,0.879v2.332H52.95z"/>
				<path fill="#45304C" d="M58.868,7.391l0.779,0.1c-0.121,0.453-0.349,0.806-0.683,1.058s-0.759,0.378-1.274,0.378
					c-0.652,0-1.169-0.2-1.55-0.601s-0.571-0.964-0.571-1.69c0-0.75,0.192-1.332,0.577-1.746s0.886-0.621,1.503-0.621
					c0.594,0,1.08,0.203,1.459,0.609s0.568,0.977,0.568,1.711c0,0.047-0.002,0.115-0.006,0.205h-3.322
					c0.027,0.488,0.165,0.862,0.413,1.122s0.56,0.39,0.935,0.39c0.277,0,0.514-0.072,0.709-0.217S58.755,7.711,58.868,7.391z
					 M56.39,6.172h2.49c-0.035-0.375-0.131-0.656-0.287-0.844c-0.242-0.293-0.555-0.439-0.938-0.439
					c-0.348,0-0.64,0.116-0.876,0.349S56.413,5.781,56.39,6.172z"/>
				<path fill="#45304C" d="M63.491,8.826V8.264c-0.281,0.441-0.697,0.662-1.248,0.662c-0.355,0-0.682-0.098-0.979-0.293
					s-0.527-0.469-0.691-0.82s-0.246-0.754-0.246-1.207c0-0.445,0.074-0.85,0.223-1.213s0.371-0.642,0.668-0.835
					s0.629-0.29,0.996-0.29c0.266,0,0.504,0.057,0.715,0.17s0.381,0.262,0.51,0.445V2.674h0.756v6.152H63.491z M61.106,6.605
					c0,0.57,0.12,0.996,0.36,1.277s0.524,0.422,0.853,0.422S62.927,8.17,63.157,7.9s0.346-0.682,0.346-1.236
					c0-0.609-0.117-1.057-0.352-1.342s-0.523-0.428-0.867-0.428c-0.336,0-0.616,0.137-0.841,0.41S61.106,6.012,61.106,6.605z"/>
				<path fill="#45304C" d="M68.466,8.826h-0.703V2.674h0.756v2.197c0.316-0.402,0.723-0.604,1.219-0.604
					c0.273,0,0.533,0.056,0.779,0.167s0.448,0.267,0.606,0.466s0.281,0.44,0.369,0.724s0.132,0.585,0.132,0.905
					c0,0.766-0.188,1.356-0.565,1.772s-0.829,0.624-1.356,0.624s-0.939-0.219-1.236-0.656V8.826z M68.454,6.564
					c0,0.535,0.072,0.922,0.217,1.16c0.238,0.387,0.561,0.58,0.967,0.58c0.328,0,0.613-0.144,0.855-0.431s0.363-0.714,0.363-1.28
					c0-0.582-0.116-1.012-0.349-1.289s-0.511-0.416-0.835-0.416c-0.332,0-0.618,0.144-0.858,0.431S68.454,6.021,68.454,6.564z"/>
				<path fill="#45304C" d="M72.515,10.543l-0.082-0.709c0.164,0.043,0.307,0.064,0.428,0.064c0.168,0,0.303-0.027,0.404-0.082
					s0.184-0.133,0.246-0.234c0.051-0.074,0.129-0.262,0.234-0.563c0.012-0.043,0.033-0.105,0.064-0.188l-1.688-4.459h0.814
					l0.926,2.578c0.121,0.328,0.229,0.672,0.322,1.031c0.086-0.348,0.189-0.686,0.311-1.014l0.949-2.596H76.2l-1.693,4.529
					c-0.184,0.488-0.324,0.824-0.422,1.008c-0.137,0.25-0.291,0.434-0.463,0.551s-0.379,0.176-0.621,0.176
					C72.856,10.637,72.694,10.605,72.515,10.543z"/>
			</g>
		</g>
		<g>
			<g>
				<g>
					<path fill="#45304C" d="M4.159,36.23v-3.733h0.753v3.733H4.159z"/>
					<path fill="#45304C" d="M8.086,36.23H7.37v-1.38c0-0.292-0.015-0.483-0.046-0.568c-0.03-0.085-0.08-0.151-0.149-0.198
						c-0.067-0.049-0.15-0.072-0.248-0.072c-0.123,0-0.234,0.035-0.332,0.102c-0.099,0.068-0.166,0.158-0.203,0.27
						c-0.037,0.112-0.055,0.318-0.055,0.621v1.227H5.622v-2.704h0.663v0.396c0.235-0.305,0.533-0.457,0.892-0.457
						c0.157,0,0.303,0.027,0.434,0.086c0.13,0.055,0.229,0.129,0.296,0.217c0.068,0.088,0.114,0.188,0.141,0.3
						c0.027,0.112,0.039,0.273,0.039,0.48V36.23z"/>
					<path fill="#45304C" d="M8.498,33.526h0.397v-0.204c0-0.229,0.024-0.398,0.074-0.51c0.047-0.111,0.136-0.205,0.267-0.273
						c0.129-0.071,0.294-0.105,0.492-0.105c0.204,0,0.402,0.029,0.599,0.092l-0.098,0.499c-0.112-0.029-0.223-0.042-0.327-0.042
						s-0.178,0.023-0.223,0.074c-0.046,0.047-0.068,0.141-0.068,0.278v0.191h0.534v0.563H9.611v2.142H8.896v-2.142H8.498V33.526z"/>
					<path fill="#45304C" d="M10.383,34.84c0-0.238,0.06-0.467,0.176-0.689c0.116-0.224,0.282-0.393,0.498-0.51
						c0.215-0.117,0.454-0.176,0.719-0.176c0.41,0,0.745,0.133,1.006,0.398s0.393,0.6,0.393,1.006c0,0.408-0.133,0.748-0.396,1.02
						c-0.263,0.268-0.596,0.402-0.996,0.402c-0.248,0-0.485-0.055-0.709-0.17c-0.226-0.111-0.397-0.275-0.514-0.49
						C10.442,35.413,10.383,35.15,10.383,34.84z M11.116,34.877c0,0.268,0.063,0.475,0.19,0.615
						c0.128,0.145,0.285,0.216,0.471,0.216c0.188,0,0.344-0.071,0.471-0.216c0.127-0.141,0.189-0.348,0.189-0.621
						c0-0.265-0.063-0.467-0.189-0.609c-0.127-0.145-0.282-0.215-0.471-0.215c-0.186,0-0.343,0.07-0.471,0.215
						C11.18,34.404,11.116,34.609,11.116,34.877z"/>
					<path fill="#45304C" d="M14.42,36.23h-0.717v-2.704h0.665v0.385c0.114-0.183,0.216-0.303,0.307-0.36
						c0.092-0.059,0.195-0.086,0.311-0.086c0.162,0,0.319,0.045,0.471,0.133l-0.222,0.627c-0.12-0.08-0.232-0.12-0.336-0.12
						c-0.101,0-0.186,0.03-0.256,0.085c-0.069,0.053-0.123,0.154-0.163,0.297c-0.04,0.146-0.06,0.449-0.06,0.908V36.23z"/>
					<path fill="#45304C" d="M15.71,33.526h0.66v0.368c0.234-0.286,0.517-0.43,0.843-0.43c0.172,0,0.322,0.035,0.45,0.106
						c0.127,0.071,0.232,0.178,0.313,0.323c0.118-0.146,0.247-0.252,0.384-0.323c0.139-0.071,0.286-0.106,0.44-0.106
						c0.2,0,0.368,0.04,0.505,0.119c0.138,0.083,0.24,0.199,0.31,0.356c0.049,0.116,0.072,0.302,0.072,0.56v1.73h-0.715v-1.547
						c0-0.268-0.025-0.441-0.074-0.52c-0.066-0.102-0.167-0.152-0.306-0.152c-0.101,0-0.194,0.029-0.282,0.09
						c-0.089,0.063-0.152,0.152-0.19,0.271c-0.038,0.117-0.059,0.303-0.059,0.557v1.301h-0.716v-1.483
						c0-0.263-0.014-0.433-0.038-0.51c-0.025-0.073-0.064-0.133-0.118-0.17c-0.055-0.036-0.127-0.056-0.219-0.056
						c-0.11,0-0.209,0.029-0.298,0.088c-0.089,0.061-0.151,0.146-0.189,0.258c-0.039,0.113-0.057,0.299-0.057,0.559v1.314H15.71
						V33.526z"/>
					<path fill="#45304C" d="M20.936,34.352l-0.649-0.119c0.073-0.26,0.199-0.454,0.376-0.579c0.18-0.127,0.443-0.188,0.796-0.188
						c0.318,0,0.557,0.037,0.713,0.111c0.155,0.077,0.267,0.173,0.33,0.29c0.063,0.116,0.095,0.329,0.095,0.64l-0.008,0.836
						c0,0.235,0.012,0.411,0.035,0.525c0.021,0.113,0.066,0.233,0.128,0.363h-0.708c-0.018-0.048-0.041-0.119-0.068-0.213
						c-0.011-0.041-0.021-0.068-0.025-0.084c-0.123,0.119-0.252,0.209-0.393,0.268c-0.139,0.061-0.287,0.09-0.445,0.09
						c-0.279,0-0.498-0.076-0.658-0.228c-0.161-0.151-0.241-0.343-0.241-0.573c0-0.151,0.037-0.287,0.11-0.409
						c0.072-0.119,0.174-0.21,0.306-0.272c0.133-0.064,0.321-0.12,0.57-0.168c0.334-0.063,0.566-0.121,0.694-0.175v-0.072
						c0-0.138-0.032-0.235-0.102-0.294c-0.068-0.059-0.196-0.088-0.384-0.088c-0.127,0-0.227,0.023-0.299,0.074
						C21.037,34.137,20.98,34.225,20.936,34.352z M21.893,34.93c-0.091,0.032-0.236,0.069-0.435,0.111
						c-0.199,0.043-0.329,0.082-0.391,0.125c-0.093,0.066-0.139,0.148-0.139,0.252c0,0.098,0.037,0.186,0.111,0.258
						c0.073,0.074,0.169,0.111,0.285,0.111c0.129,0,0.252-0.043,0.369-0.127c0.087-0.066,0.145-0.145,0.171-0.236
						c0.019-0.064,0.027-0.178,0.027-0.351V34.93z"/>
					<path fill="#45304C" d="M24.542,33.526v0.57h-0.488v1.089c0,0.22,0.004,0.35,0.012,0.387c0.01,0.034,0.031,0.066,0.064,0.09
						s0.074,0.035,0.121,0.035c0.066,0,0.163-0.021,0.288-0.069l0.061,0.555c-0.165,0.071-0.354,0.108-0.565,0.108
						c-0.129,0-0.245-0.021-0.35-0.066c-0.103-0.042-0.178-0.098-0.226-0.166c-0.05-0.07-0.082-0.162-0.102-0.279
						c-0.016-0.082-0.023-0.252-0.023-0.504v-1.179h-0.328v-0.57h0.328v-0.538l0.72-0.418v0.956H24.542z"/>
					<path fill="#45304C" d="M25.038,33.157v-0.66h0.716v0.66H25.038z M25.038,36.23v-2.704h0.716v2.704H25.038z"/>
					<path fill="#45304C" d="M26.321,34.84c0-0.238,0.06-0.467,0.176-0.689c0.117-0.224,0.284-0.393,0.498-0.51
						s0.455-0.176,0.721-0.176c0.407,0,0.743,0.133,1.006,0.398c0.261,0.266,0.391,0.6,0.391,1.006c0,0.408-0.131,0.748-0.395,1.02
						c-0.266,0.268-0.598,0.402-0.998,0.402c-0.247,0-0.484-0.055-0.709-0.17c-0.226-0.111-0.396-0.275-0.514-0.49
						C26.381,35.413,26.321,35.15,26.321,34.84z M27.055,34.877c0,0.268,0.063,0.475,0.19,0.615
						c0.128,0.145,0.286,0.216,0.472,0.216c0.187,0,0.344-0.071,0.471-0.216c0.126-0.141,0.189-0.348,0.189-0.621
						c0-0.265-0.063-0.467-0.189-0.609c-0.127-0.145-0.284-0.215-0.471-0.215c-0.186,0-0.344,0.07-0.472,0.215
						C27.118,34.404,27.055,34.609,27.055,34.877z"/>
					<path fill="#45304C" d="M32.132,36.23h-0.715v-1.38c0-0.292-0.016-0.483-0.047-0.568c-0.029-0.085-0.079-0.151-0.148-0.198
						c-0.069-0.049-0.15-0.072-0.247-0.072c-0.124,0-0.235,0.035-0.333,0.102c-0.101,0.068-0.168,0.158-0.204,0.27
						c-0.036,0.112-0.054,0.318-0.054,0.621v1.227h-0.717v-2.704h0.665v0.396c0.236-0.305,0.533-0.457,0.892-0.457
						c0.157,0,0.302,0.027,0.433,0.086c0.132,0.055,0.229,0.129,0.297,0.217c0.066,0.088,0.114,0.188,0.14,0.3
						c0.026,0.112,0.039,0.273,0.039,0.48V36.23z"/>
					<path fill="#45304C" d="M34.842,34.352l-0.648-0.119c0.072-0.26,0.198-0.454,0.376-0.579c0.179-0.127,0.443-0.188,0.796-0.188
						c0.318,0,0.555,0.037,0.713,0.111c0.155,0.077,0.267,0.173,0.33,0.29c0.063,0.116,0.096,0.329,0.096,0.64l-0.009,0.836
						c0,0.235,0.011,0.411,0.034,0.525c0.023,0.113,0.065,0.233,0.129,0.363H35.95c-0.019-0.048-0.041-0.119-0.069-0.213
						c-0.012-0.041-0.021-0.068-0.024-0.084c-0.122,0.119-0.254,0.209-0.392,0.268c-0.141,0.061-0.288,0.09-0.446,0.09
						c-0.279,0-0.499-0.076-0.658-0.228c-0.16-0.151-0.242-0.343-0.242-0.573c0-0.151,0.038-0.287,0.111-0.409
						c0.072-0.119,0.174-0.21,0.307-0.272c0.131-0.064,0.32-0.12,0.568-0.168c0.334-0.063,0.567-0.121,0.696-0.175v-0.072
						c0-0.138-0.035-0.235-0.104-0.294c-0.067-0.059-0.196-0.088-0.385-0.088c-0.127,0-0.225,0.023-0.297,0.074
						S34.887,34.225,34.842,34.352z M35.801,34.93c-0.093,0.032-0.238,0.069-0.436,0.111c-0.2,0.043-0.33,0.082-0.391,0.125
						c-0.093,0.066-0.14,0.148-0.14,0.252c0,0.098,0.037,0.186,0.112,0.258c0.073,0.074,0.169,0.111,0.285,0.111
						c0.129,0,0.251-0.043,0.369-0.127c0.086-0.066,0.143-0.145,0.171-0.236c0.019-0.064,0.028-0.178,0.028-0.351V34.93z"/>
					<path fill="#45304C" d="M38.448,33.526v0.57h-0.489v1.089c0,0.22,0.005,0.35,0.014,0.387c0.011,0.034,0.03,0.066,0.064,0.09
						c0.033,0.023,0.072,0.035,0.121,0.035c0.065,0,0.162-0.021,0.287-0.069l0.061,0.555c-0.165,0.071-0.354,0.108-0.564,0.108
						c-0.129,0-0.245-0.021-0.349-0.066c-0.104-0.042-0.18-0.098-0.229-0.166c-0.048-0.07-0.081-0.162-0.101-0.279
						c-0.015-0.082-0.023-0.252-0.023-0.504v-1.179h-0.327v-0.57h0.327v-0.538l0.719-0.418v0.956H38.448z"/>
					<path fill="#45304C" d="M40.055,33.526h0.762l0.646,1.919l0.632-1.919h0.741l-0.954,2.601L41.71,36.6
						c-0.063,0.156-0.122,0.278-0.18,0.361c-0.057,0.082-0.122,0.15-0.195,0.201c-0.073,0.053-0.164,0.093-0.272,0.122
						c-0.107,0.029-0.229,0.042-0.365,0.042c-0.138,0-0.273-0.013-0.406-0.042l-0.063-0.561c0.113,0.022,0.214,0.032,0.304,0.032
						c0.166,0,0.29-0.048,0.369-0.146c0.08-0.098,0.141-0.22,0.183-0.371L40.055,33.526z"/>
					<path fill="#45304C" d="M43.128,34.84c0-0.238,0.059-0.467,0.177-0.689c0.117-0.224,0.282-0.393,0.498-0.51
						c0.215-0.117,0.453-0.176,0.719-0.176c0.409,0,0.744,0.133,1.006,0.398s0.393,0.6,0.393,1.006c0,0.408-0.132,0.748-0.397,1.02
						c-0.263,0.268-0.596,0.402-0.995,0.402c-0.249,0-0.485-0.055-0.711-0.17c-0.224-0.111-0.395-0.275-0.512-0.49
						C43.187,35.413,43.128,35.15,43.128,34.84z M43.862,34.877c0,0.268,0.063,0.475,0.19,0.615
						c0.128,0.145,0.284,0.216,0.472,0.216c0.187,0,0.343-0.071,0.47-0.216c0.126-0.141,0.19-0.348,0.19-0.621
						c0-0.265-0.064-0.467-0.19-0.609c-0.127-0.145-0.283-0.215-0.47-0.215c-0.188,0-0.344,0.07-0.472,0.215
						C43.926,34.404,43.862,34.609,43.862,34.877z"/>
					<path fill="#45304C" d="M48.26,36.23v-0.406c-0.099,0.146-0.228,0.258-0.388,0.343c-0.161,0.082-0.33,0.124-0.508,0.124
						c-0.183,0-0.346-0.039-0.49-0.119c-0.144-0.08-0.248-0.193-0.313-0.337c-0.063-0.144-0.097-0.345-0.097-0.6v-1.709h0.717v1.241
						c0,0.381,0.013,0.613,0.039,0.698c0.025,0.088,0.073,0.154,0.145,0.204c0.069,0.051,0.157,0.074,0.265,0.074
						c0.122,0,0.231-0.031,0.327-0.1c0.098-0.067,0.164-0.149,0.199-0.25c0.036-0.098,0.053-0.342,0.053-0.728v-1.141h0.716v2.704
						H48.26z"/>
					<path fill="#45304C" d="M50.35,36.23h-0.715v-2.704H50.3v0.385c0.114-0.183,0.216-0.303,0.308-0.36
						c0.091-0.059,0.192-0.086,0.308-0.086c0.164,0,0.32,0.045,0.472,0.133l-0.221,0.627c-0.12-0.08-0.233-0.12-0.336-0.12
						c-0.101,0-0.185,0.03-0.255,0.085c-0.069,0.053-0.125,0.154-0.165,0.297c-0.04,0.146-0.061,0.449-0.061,0.908V36.23z"/>
					<path fill="#45304C" d="M52.83,33.526h0.398v-0.204c0-0.229,0.023-0.398,0.073-0.51c0.048-0.111,0.137-0.205,0.267-0.273
						c0.13-0.071,0.294-0.105,0.492-0.105c0.204,0,0.402,0.029,0.599,0.092l-0.097,0.499c-0.113-0.029-0.224-0.042-0.328-0.042
						c-0.104,0-0.178,0.023-0.223,0.074c-0.045,0.047-0.068,0.141-0.068,0.278v0.191h0.535v0.563h-0.535v2.142h-0.715v-2.142H52.83
						V33.526z"/>
					<path fill="#45304C" d="M54.881,33.157v-0.66h0.717v0.66H54.881z M54.881,36.23v-2.704h0.717v2.704H54.881z"/>
					<path fill="#45304C" d="M58.789,36.23h-0.714v-1.38c0-0.292-0.016-0.483-0.047-0.568c-0.029-0.085-0.08-0.151-0.149-0.198
						c-0.068-0.049-0.151-0.072-0.247-0.072c-0.124,0-0.235,0.035-0.334,0.102c-0.098,0.068-0.166,0.158-0.203,0.27
						c-0.035,0.112-0.055,0.318-0.055,0.621v1.227h-0.716v-2.704h0.666v0.396c0.234-0.305,0.532-0.457,0.89-0.457
						c0.158,0,0.304,0.027,0.435,0.086c0.13,0.055,0.229,0.129,0.296,0.217c0.068,0.088,0.114,0.188,0.14,0.3
						c0.027,0.112,0.039,0.273,0.039,0.48V36.23z"/>
					<path fill="#45304C" d="M59.449,36.408l0.817,0.098c0.014,0.096,0.045,0.162,0.094,0.197c0.069,0.05,0.175,0.076,0.321,0.076
						c0.188,0,0.327-0.029,0.42-0.084c0.063-0.037,0.11-0.096,0.143-0.182c0.021-0.058,0.033-0.166,0.033-0.328v-0.393
						c-0.214,0.291-0.483,0.438-0.81,0.438c-0.363,0-0.651-0.154-0.863-0.462c-0.166-0.241-0.25-0.544-0.25-0.907
						c0-0.451,0.11-0.799,0.328-1.037c0.217-0.24,0.489-0.359,0.813-0.359c0.334,0,0.609,0.146,0.827,0.441v-0.38h0.671v2.426
						c0,0.317-0.026,0.557-0.08,0.716c-0.053,0.156-0.126,0.281-0.222,0.372s-0.221,0.159-0.38,0.212
						c-0.158,0.051-0.36,0.074-0.603,0.074c-0.458,0-0.783-0.076-0.977-0.233c-0.19-0.159-0.286-0.358-0.286-0.597
						C59.447,36.473,59.448,36.443,59.449,36.408z M60.089,34.821c0,0.286,0.056,0.496,0.167,0.632
						c0.111,0.133,0.247,0.199,0.411,0.199c0.173,0,0.323-0.069,0.443-0.205c0.119-0.138,0.18-0.34,0.18-0.607
						c0-0.281-0.058-0.488-0.173-0.623c-0.116-0.136-0.262-0.205-0.438-0.205c-0.171,0-0.312,0.066-0.423,0.199
						S60.089,34.548,60.089,34.821z"/>
					<path fill="#45304C" d="M64.269,35.367l0.712,0.121c-0.092,0.262-0.236,0.461-0.434,0.6c-0.198,0.135-0.445,0.203-0.743,0.203
						c-0.47,0-0.817-0.153-1.045-0.461c-0.178-0.247-0.267-0.559-0.267-0.932c0-0.449,0.117-0.799,0.353-1.055
						c0.232-0.254,0.53-0.379,0.889-0.379c0.401,0,0.719,0.133,0.951,0.398c0.233,0.266,0.344,0.672,0.334,1.221h-1.792
						c0.005,0.213,0.063,0.377,0.173,0.496c0.11,0.117,0.247,0.176,0.412,0.176c0.111,0,0.206-0.029,0.283-0.091
						S64.228,35.506,64.269,35.367z M64.308,34.646c-0.005-0.207-0.059-0.366-0.16-0.473c-0.101-0.109-0.226-0.162-0.371-0.162
						c-0.156,0-0.286,0.056-0.388,0.17c-0.101,0.114-0.152,0.268-0.15,0.465H64.308z"/>
					<path fill="#45304C" d="M66.286,36.23h-0.715v-2.704h0.665v0.385c0.114-0.183,0.216-0.303,0.306-0.36
						c0.093-0.059,0.194-0.086,0.31-0.086c0.164,0,0.319,0.045,0.471,0.133l-0.222,0.627c-0.12-0.08-0.232-0.12-0.336-0.12
						c-0.099,0-0.184,0.03-0.254,0.085c-0.069,0.053-0.125,0.154-0.165,0.297c-0.039,0.146-0.06,0.449-0.06,0.908V36.23z"/>
					<path fill="#45304C" d="M68.871,33.526v0.57h-0.488v1.089c0,0.22,0.005,0.35,0.014,0.387c0.009,0.034,0.03,0.066,0.063,0.09
						c0.034,0.023,0.075,0.035,0.122,0.035c0.067,0,0.162-0.021,0.287-0.069l0.063,0.555c-0.167,0.071-0.356,0.108-0.566,0.108
						c-0.129,0-0.243-0.021-0.349-0.066c-0.104-0.042-0.18-0.098-0.228-0.166c-0.049-0.07-0.082-0.162-0.102-0.279
						c-0.015-0.082-0.021-0.252-0.021-0.504v-1.179h-0.329v-0.57h0.329v-0.538l0.718-0.418v0.956H68.871z"/>
					<path fill="#45304C" d="M69.367,33.157v-0.66h0.717v0.66H69.367z M69.367,36.23v-2.704h0.717v2.704H69.367z"/>
					<path fill="#45304C" d="M70.797,33.526h0.667v0.396c0.086-0.135,0.204-0.244,0.352-0.329s0.312-0.128,0.491-0.128
						c0.314,0,0.581,0.123,0.8,0.369c0.219,0.247,0.328,0.59,0.328,1.027c0,0.453-0.11,0.804-0.331,1.053
						c-0.22,0.253-0.487,0.377-0.803,0.377c-0.148,0-0.283-0.029-0.405-0.09c-0.121-0.059-0.25-0.162-0.384-0.305v1.361h-0.715
						V33.526z M71.505,34.832c0,0.303,0.06,0.527,0.181,0.674c0.12,0.144,0.267,0.218,0.439,0.218c0.166,0,0.306-0.067,0.416-0.202
						c0.11-0.133,0.166-0.35,0.166-0.655c0-0.281-0.057-0.493-0.171-0.632c-0.114-0.135-0.255-0.203-0.424-0.203
						c-0.174,0-0.319,0.065-0.435,0.201C71.563,34.367,71.505,34.566,71.505,34.832z"/>
					<path fill="#45304C" d="M73.75,35.459l0.719-0.109c0.03,0.139,0.092,0.244,0.186,0.315s0.225,0.108,0.392,0.108
						c0.187,0,0.325-0.034,0.419-0.1c0.063-0.049,0.094-0.112,0.094-0.191c0-0.057-0.018-0.102-0.051-0.136
						c-0.035-0.034-0.115-0.066-0.24-0.096c-0.577-0.128-0.942-0.244-1.098-0.347c-0.213-0.146-0.32-0.351-0.32-0.611
						c0-0.233,0.093-0.43,0.278-0.589s0.471-0.239,0.859-0.239c0.371,0,0.646,0.059,0.825,0.182
						c0.182,0.118,0.305,0.297,0.373,0.533l-0.675,0.124c-0.029-0.104-0.084-0.187-0.164-0.241
						c-0.082-0.056-0.197-0.085-0.346-0.085c-0.188,0-0.324,0.026-0.405,0.079c-0.053,0.037-0.081,0.086-0.081,0.146
						c0,0.051,0.023,0.093,0.071,0.13c0.064,0.048,0.287,0.114,0.668,0.202c0.382,0.084,0.648,0.19,0.799,0.318
						c0.148,0.127,0.224,0.303,0.224,0.53c0,0.249-0.104,0.462-0.311,0.64s-0.514,0.268-0.92,0.268
						c-0.367,0-0.659-0.074-0.874-0.226C73.957,35.918,73.816,35.716,73.75,35.459z"/>
				</g>
			</g>
			<g>
				<polygon fill="#45304C" points="20.928,17.326 17.494,24.377 17.187,17.326 13.465,17.326 11.032,28.982 13.625,28.982 
					15.026,21.617 15.345,28.982 17.924,28.982 21.362,21.764 19.646,28.982 22.267,28.982 24.707,17.326 				"/>
				<path fill="#45304C" d="M29.224,20.209c-1.44,0-2.622,0.475-3.513,1.413c-0.885,0.935-1.335,2.197-1.335,3.754
					c0,0.677,0.154,1.32,0.461,1.911c0.313,0.604,0.792,1.074,1.425,1.402c0.623,0.322,1.342,0.484,2.141,0.484
					c1.475,0,2.67-0.51,3.553-1.516c0.874-0.996,1.317-2.194,1.317-3.56c0-1.176-0.362-2.129-1.081-2.832
					C31.477,20.564,30.479,20.209,29.224,20.209z M29.784,26.305c-0.358,0.453-0.786,0.672-1.306,0.672
					c-0.407,0-0.734-0.14-0.999-0.428c-0.272-0.293-0.403-0.688-0.403-1.203c0-0.436,0.097-0.921,0.287-1.445
					c0.187-0.508,0.446-0.897,0.771-1.158c0.322-0.257,0.681-0.381,1.096-0.381c0.409,0,0.731,0.127,0.984,0.389
					c0.257,0.266,0.381,0.614,0.381,1.066C30.596,24.792,30.322,25.629,29.784,26.305z"/>
				<path fill="#45304C" d="M39.756,20.209c-0.439,0-0.853,0.07-1.227,0.21c-0.208,0.077-0.427,0.185-0.652,0.321l0.718-3.414
					h-2.712L33.45,28.982h2.505l0.196-0.929c0.583,0.743,1.396,1.12,2.426,1.12c0.521,0,1.026-0.113,1.505-0.34
					c0.469-0.223,0.924-0.566,1.347-1.021c0.426-0.459,0.768-1.057,1.02-1.779c0.249-0.716,0.375-1.464,0.375-2.225
					c0-1.148-0.279-2.044-0.833-2.66C41.43,20.525,40.679,20.209,39.756,20.209z M40.199,23.862c0,0.554-0.104,1.112-0.314,1.659
					c-0.201,0.531-0.453,0.918-0.747,1.152c-0.289,0.229-0.579,0.34-0.888,0.34c-0.344,0-0.637-0.139-0.896-0.425
					c-0.265-0.293-0.394-0.671-0.394-1.151c0-1.013,0.256-1.854,0.761-2.498c0.347-0.445,0.744-0.662,1.212-0.662
					c0.35,0,0.64,0.133,0.888,0.406C40.073,22.961,40.199,23.357,40.199,23.862z"/>
				<polygon fill="#45304C" points="44.818,20.398 43.023,28.982 45.727,28.982 47.521,20.398 				"/>
				<polygon fill="#45304C" points="48.159,17.326 45.458,17.326 44.94,19.813 47.644,19.813 				"/>
				<polygon fill="#45304C" points="49.776,17.326 47.334,28.982 50.037,28.982 52.471,17.326 				"/>
				<path fill="#45304C" d="M59.316,21.203c-0.631-0.66-1.486-0.994-2.543-0.994c-1.631,0-2.906,0.623-3.79,1.855
					c-0.642,0.902-0.966,1.944-0.966,3.099c0,1.194,0.367,2.172,1.093,2.905c0.726,0.734,1.677,1.105,2.826,1.105
					c0.836,0,1.601-0.213,2.275-0.627c0.676-0.418,1.22-1.048,1.621-1.873l0.146-0.307l-2.469-0.414l-0.087,0.16
					c-0.36,0.668-0.842,0.992-1.472,0.992c-0.37,0-0.676-0.135-0.936-0.413c-0.253-0.271-0.381-0.622-0.392-1.069h5.429l0.048-0.195
					c0.105-0.438,0.159-0.938,0.159-1.481C60.261,22.783,59.943,21.861,59.316,21.203z M56.538,22.277
					c0.379,0,0.669,0.119,0.89,0.364c0.221,0.244,0.333,0.628,0.338,1.141h-2.847c0.125-0.459,0.319-0.817,0.581-1.065
					C55.812,22.421,56.15,22.277,56.538,22.277z"/>
			</g>
			<g>
				<rect x="3.899" y="30.31" fill="#45304C" width="71.971" height="1.106"/>
			</g>
			<circle fill="#45304C" cx="63.818" cy="27.237" r="1.623"/>
			<circle fill="#45304C" cx="68.998" cy="27.237" r="1.623"/>
			<circle fill="#45304C" cx="74.247" cy="27.237" r="1.623"/>
			<path fill="#45304C" d="M9.008,25.07c0.554-0.299,1.74-1.088,1.937-2.258c0.355-2.135-1.188-2.132-2.538-1.711
				c-1.568,0.487-3.921,2.115-4.517,4.246c-0.496,1.771,0.159,3.331,1.32,3.572c2.876,0.6,4.772-1.561,4.772-1.561
				s0.322-0.263,0.075-0.511c-0.195-0.194-0.481,0.016-0.481,0.016s-0.884,0.96-2.461,0.841c-1.191-0.091-0.854-2.027-0.854-2.027
				S7.881,25.678,9.008,25.07z M8.086,22.332c1.084-0.711,1.098,0.345,1.011,0.631c-0.599,1.984-2.671,1.984-2.671,1.984
				S7.056,23.008,8.086,22.332z"/>
		</g>
	</g>
</g>
</svg>
